<?xml version="1.0" encoding="utf-8"?>
<!-- Generator: Adobe Illustrator 25.4.1, SVG Export Plug-In . SVG Version: 6.00 Build 0)  -->
<svg version="1.1" id="Layer_1" xmlns="http://www.w3.org/2000/svg" xmlns:xlink="http://www.w3.org/1999/xlink" x="0px" y="0px"
	 width="864px" height="864px" viewBox="0 0 864 864" style="enable-background:new 0 0 864 864;" xml:space="preserve">
<style type="text/css">
	.st0{fill:#1D1D1B;}
</style>
<g>
	<path d="M132.6,207.7c-1.5-20.1-3.2-32.2-5.1-36.3c-0.4-0.8-0.9-1.5-1.6-2.2c-0.7-0.7-1.3-1.1-1.8-1.3c-0.3,0-0.5-0.1-0.8-0.1
		c-1,0-1.8,0.4-2.3,1.3c-0.3,0.5-0.5,1-0.5,1.5c0,0.6,0.2,1.2,0.6,1.8c0.5,0.6,0.8,1.3,1.1,2c0.3,0.7,0.6,1.8,0.9,3.3
		c1.2,6.3,2.1,14.8,2.7,25.4c0.5,7.5,0.7,14.4,0.7,20.7c0,2.7,0,5.3-0.1,7.8c-0.1,3.9-0.3,6.8-0.5,8.7c-0.2,1.9-0.5,3.9-0.9,5.7
		c-0.5,2.4-1.1,4.4-1.9,6s-1.5,2.4-2.1,2.4c-0.4,0-1-0.4-1.8-1.3c-0.8-0.8-1.6-1.8-2.4-3c-4.1-5.8-8.1-17.2-12-34.2
		c-0.4-1.8-0.8-3.4-1.1-4.8c-0.3-1.4-0.5-2.3-0.6-2.6c-0.6-1.8-1.5-3.1-2.5-3.9c-0.6-0.3-1.2-0.5-1.9-0.5h-0.3
		c-0.7,0-1.2,0.1-1.7,0.4c-0.5,0.2-1,0.6-1.4,1.2c-0.4,0.6-0.8,1.5-1.3,2.9s-1.2,3.3-2,6c-3.5,10.9-6.2,18.9-8.1,23.7
		c-1.9,4.9-3.5,8.4-5,10.6c-0.3,0.4-0.5,0.7-0.6,0.9c-0.1,0.1-0.2,0.1-0.2,0.1c0,0-0.1,0-0.1,0c0,0-0.1-0.1-0.1-0.3
		c0-0.2-0.1-0.6-0.3-1.3c-0.1-0.7-0.3-1.4-0.5-2.3c-0.1-0.8-0.2-1.6-0.3-2.4c-0.1-0.8-0.1-1.9-0.1-3.2c0-1.4,0-3.4,0-6v-1.4
		c0-4.7,0.2-9.3,0.6-13.7c0.4-4.4,1.2-9.7,2.3-16.1c1-5.8,2.1-11.2,3.3-16.1c1.2-4.9,2.1-7.8,2.8-8.8c0.1-0.2,0.3-0.4,0.4-0.7
		c0.1-0.3,0.2-0.5,0.2-0.6c0.1-0.4,0.2-1,0.4-1.8c0.2-0.8,0.4-1.7,0.7-2.7c0-0.3,0.1-0.6,0.1-0.8c0-0.6-0.2-1.2-0.5-1.9
		c-0.3-0.7-0.9-1.2-1.7-1.6c-0.5-0.2-1-0.3-1.5-0.3c-1.1,0-2.2,0.5-3.2,1.5c-1.5,1.7-3.2,5.6-5,11.7c-1.9,6.1-3.5,13.1-4.8,21
		c-1.9,11.6-2.9,21.8-2.9,30.6c0,1.5,0.1,5,0.3,10.5c0.2,5.5,1.7,9.9,4.6,13.2c1.2,1.5,2.7,2.2,4.6,2.2h0.3c2,0,3.8-1,5.5-3
		c1.7-2,3.6-5.5,5.6-10.6c2-5.1,4.4-12.1,7.2-21.2c1-3.3,1.6-5,1.8-5c0,0,0.1,0.1,0.1,0.4c0,0.1,0.1,0.6,0.3,1.4
		c0.2,0.9,0.4,1.9,0.7,3.1c2.5,10.6,5.4,19.2,8.8,25.7c3.4,6.5,6.9,10.5,10.7,11.9c0.8,0.2,1.5,0.4,2.4,0.4c0.2,0,0.7,0,1.4-0.1
		c0.7,0,1.5-0.3,2.4-0.7c4.5-2.2,7.2-8.6,8.3-19.3c0.2-1.7,0.3-4.8,0.4-9.3v-4.5c0-3.1,0-6.6-0.1-10.5
		C132.9,213.7,132.7,210.4,132.6,207.7z"/>
	<path d="M230.5,240.8c-0.5-5.4-0.8-11.9-1-19.5c0-1.6-0.1-3.2-0.1-4.9c0-4.3,0.1-9.6,0.3-15.7c0.2-6.2,0.6-11.4,1-15.8
		c0.1-1.5,0.3-2.6,0.4-3.5c0.1-0.9,0.1-1.6,0.1-2v-0.4c0-0.2,0-0.4-0.1-0.6c0-0.2-0.1-0.4-0.2-0.6c-0.6-1-1.5-1.6-2.7-1.7h-0.1
		c-1.1,0-2.1,0.5-2.8,1.4c-0.6,0.7-1.1,3.1-1.7,7.1c-0.6,4.1-2.2,10-4.7,17.5c-0.5,1.3-0.9,2.5-1.2,3.5c-0.3,1-0.5,1.6-0.6,1.8
		l-0.2,0.6l-1.2-1.1c-2-1.8-4.2-2.7-6.5-2.7c-1.4,0-2.8,0.3-4.3,1c-3.2,1.7-6,4.8-8.3,9.4c-0.8,1.6-1.5,3.3-2.1,5.1
		c-0.3,0.2-0.7,0.5-1,0.7c-1.6,1-3.1,1.7-4.7,1.9c0,0,0-0.4-0.1-1.1c-0.1-0.7-0.2-1.5-0.2-2.4c-0.2-3.8-0.9-6.8-2-9
		c-1-2-2.4-3.3-4-3.9c-0.7-0.3-1.4-0.4-2.1-0.4c-0.9,0-1.9,0.3-2.9,0.8c-0.5,0.3-0.8,0.4-1.1,0.5h-0.2c-0.2,0-0.5,0-0.7-0.1
		c-0.4-0.1-0.7-0.1-1.1-0.1c-1.5,0-2.9,1.1-4,3.2c-1.1,2.4-2,5.6-2.6,9.6c-0.5,0.4-1.1,0.8-1.7,1.2c-1.6,1-3.1,1.7-4.7,1.9
		c0,0,0-0.4-0.1-1.1c-0.1-0.7-0.2-1.5-0.2-2.4c-0.2-3.8-0.9-6.8-2-9c-1-2-2.4-3.3-4-3.9c-0.7-0.3-1.4-0.4-2.1-0.4
		c-0.9,0-1.9,0.3-2.9,0.8c-0.5,0.3-0.8,0.4-1.1,0.5h-0.2c-0.2,0-0.5,0-0.7-0.1c-0.4-0.1-0.7-0.1-1.1-0.1c-1.5,0-2.9,1.1-4,3.2
		c-1.1,2.4-2,5.8-2.7,10c-0.6,3.5-0.8,7-0.8,10.5c0,0.8,0,2.4,0.1,4.9c0.1,2.5,0.7,5.1,1.9,7.8c1.7,3.1,3.8,4.7,6.2,4.7
		c0.1,0,0.9-0.1,2.4-0.2c1.4-0.1,3.2-1.6,5.2-4.4c2.2-3.1,3.8-7,4.9-11.6l0.6-2.7l1-0.3c1.7-0.6,3.4-1.2,5.2-1.9
		c0.1,0,0.1,0,0.2-0.1c-0.1,1.2-0.1,2.5-0.1,3.7c0,0.8,0,2.4,0.1,4.9c0.1,2.5,0.7,5.1,1.9,7.8c1.7,3.1,3.8,4.7,6.2,4.7
		c0.1,0,0.9-0.1,2.4-0.2c1.4-0.1,3.2-1.6,5.2-4.4c2.2-3.1,3.8-7,4.9-11.6l0.6-2.7l1-0.3c1.2-0.4,2.4-0.9,3.7-1.3
		c-0.2,1.1-0.3,2.2-0.4,3.4c-0.1,1.1-0.1,2.2-0.1,3.3c0,2.8,0.4,5.5,1.2,8.1c0.8,2.6,2.2,4.4,4.2,5.5c0.8,0.4,1.7,0.6,2.7,0.6
		c1,0,1.9-0.2,2.7-0.6c1.2-0.7,2.4-1.6,3.5-2.9c1.1-1.2,2.3-3,3.6-5.3c1.5-2.5,3.3-6,5.2-10.4c2-4.4,3.7-8.5,5.2-12.5l1.2-3.1
		l0.1,3.9c0.7,16.1,1.5,26.7,2.7,31.8c0.7,3.9,1.8,6.2,3.2,6.7c0.6,0.3,1.1,0.4,1.7,0.4c0.3,0,0.8-0.1,1.4-0.2
		c0.6-0.2,1.2-0.7,1.7-1.5c0.3-0.6,0.5-1.1,0.5-1.6c0-0.8-0.3-1.6-1-2.3C231.6,249.3,231,246.2,230.5,240.8z M153.5,231.5
		c-0.3,0.9-0.7,1.9-1.2,2.8c-0.4,1-0.8,1.7-1.2,2.3c-1.2,2.1-2.1,3.2-2.5,3.2c0,0-0.2,0-0.4-0.1c-0.2-0.1-0.5-1.3-0.7-3.6
		c-0.2-1.5-0.3-3-0.3-4.4c0-1,0-2,0.1-3l0.1-1.2l1.6,0.8c0.5,0.2,1,0.5,1.6,0.7c0.6,0.2,1.1,0.4,1.6,0.5c0.5,0.1,0.9,0.2,1.2,0.2
		c0.3,0.1,0.5,0.1,0.5,0.2C153.9,230,153.8,230.6,153.5,231.5z M155.1,222.6c0,0.4-0.1,0.6-0.3,0.8c0,0-0.2,0.1-0.4,0.1H154
		c-2.6-0.1-3.9-1.7-3.9-4.9v-0.6c0.1-2.2,0.8-4,1.9-5.4l0.8-0.9l0.5,0.5c0.1,0.2,0.2,0.5,0.4,0.9c0.2,0.4,0.4,0.8,0.5,1.3
		c0.2,0.7,0.4,1.5,0.5,2.7c0.2,1.1,0.3,2.3,0.3,3.4c0,0.5,0.1,1,0.1,1.4C155.1,222,155.1,222.3,155.1,222.6z M180.9,231.5
		c-0.3,0.9-0.7,1.9-1.2,2.8c-0.4,1-0.8,1.7-1.2,2.3c-1.2,2.1-2.1,3.2-2.5,3.2c0,0-0.2,0-0.4-0.1c-0.2-0.1-0.5-1.3-0.7-3.6
		c-0.2-1.5-0.3-3-0.3-4.4c0-1,0-2,0.1-3l0.1-1.2l1.6,0.8c0.5,0.2,1,0.5,1.6,0.7c0.6,0.2,1.1,0.4,1.6,0.5c0.5,0.1,0.9,0.2,1.2,0.2
		c0.3,0.1,0.5,0.1,0.5,0.2C181.4,230,181.2,230.6,180.9,231.5z M182.5,222.6c0,0.4-0.1,0.6-0.3,0.8c0,0-0.2,0.1-0.4,0.1h-0.4
		c-2.6-0.1-3.9-1.7-3.9-4.9v-0.6c0.1-2.2,0.8-4,1.9-5.4l0.8-0.9l0.5,0.5c0.1,0.2,0.2,0.5,0.4,0.9c0.2,0.4,0.4,0.8,0.5,1.3
		c0.2,0.7,0.4,1.5,0.5,2.7c0.2,1.1,0.3,2.3,0.3,3.4c0,0.5,0.1,1,0.1,1.4C182.6,222,182.6,222.3,182.5,222.6z M211.4,221.2
		c-1.5,3.3-3.1,6.5-4.7,9.5c-1.6,3-3.1,5.3-4.3,6.9c-0.3,0.4-0.6,0.8-0.8,1.1c-0.2,0.3-0.4,0.4-0.4,0.4c-0.2,0-0.3-0.4-0.5-1.3
		c-0.1-0.9-0.2-1.9-0.2-3.1c0-1.2,0-2.4,0.1-3.5c0.2-1.7,0.4-3.3,0.7-4.6c0.3-1.3,0.7-2.7,1.1-4.2c1-3,2.2-5.4,3.6-7.4
		c1.4-1.9,2.6-2.9,3.7-2.9c1.5,0,2.5,1.4,3.1,4.2l0.2,1.4L211.4,221.2z"/>
	<path d="M261.7,224.5c-2.2-1.3-5.7-2.1-10.5-2.6c-3.1-0.3-5.2-0.7-6.1-1.2c-0.5-0.3-0.8-0.7-0.8-1.1c0-0.4,0.3-1.1,1-2
		c0.6-0.9,2.2-2.6,4.6-5l2.7-2.8l0.8,0.8c0.3,0.3,0.6,0.6,0.8,0.7c0.2,0.1,0.6,0.2,1.1,0.2s0.9,0,1.1-0.1c0.2-0.1,0.5-0.3,0.7-0.6
		c2-2.3,3.2-4.5,3.5-6.3l0.1-0.5c0-0.5-0.1-1.1-0.4-1.7c-0.3-0.6-0.6-1.1-1.1-1.5c-0.9-0.8-1.9-1.1-3.2-1.1c-0.9,0-2.4,0.4-4.3,1.2
		c-1.9,0.8-4.5,2.8-7.7,6c-5,5.2-7.5,9.6-7.5,13.5v0.6c0.3,2.2,1.1,3.8,2.4,4.9c1.3,1.1,2.8,1.8,4.6,2.2c1.8,0.4,3.5,0.6,5.3,0.8
		c2.5,0.2,4.5,0.5,6,0.7c2.6,0.5,3.9,1.3,3.9,2.4c0,0,0,0.4-0.1,1c-0.1,0.6-1,1.8-2.9,3.6c-1.6,1.5-3.5,3-5.5,4.2
		c-2,1.3-3.8,2-5.4,2.3c-0.2,0-0.4,0.1-0.5,0.1c-0.1,0-0.3,0-0.4-0.1c-0.1,0-0.3-0.2-0.6-0.6c-0.7-0.7-1.4-1.1-2.1-1.1h-0.2
		c-0.7,0-1.3,0.2-1.9,0.7c-0.6,0.5-0.8,1.2-0.8,2c0,0.8,0.3,1.7,1,2.6c0.7,0.9,1.5,1.6,2.6,2.1c0.5,0.2,1.2,0.4,2.3,0.4h0.6
		c0.9,0,1.8-0.1,2.7-0.2c0.9-0.2,2.3-0.7,3.9-1.5s3.3-1.7,4.9-2.7c2.3-1.5,4.3-3.4,6.2-5.8s2.9-5,3.1-7.5v-0.4
		C265.8,228.4,264.4,226.3,261.7,224.5z"/>
	<path d="M383.7,215.4c-0.5-0.5-1.1-0.8-1.8-0.8c-0.8,0-1.9,0.2-3.3,0.5c-1.4,0.3-2.6,0.7-3.5,1.1c-0.5,0.1-0.9,0.3-1.2,0.4
		c-0.3,0.1-0.5,0.2-0.6,0.2c0-0.4,0.1-0.9,0.1-1.3c0-1.5-0.3-3.3-0.8-5.4c-0.5-2.1-1.4-3.8-2.6-4.9c-1.1-0.8-2.2-1.2-3.3-1.2
		c-2.9,0-5.9,2.5-9.2,7.5c-1.1,1.6-2.2,3.6-3.3,5.8c-1.2,2.3-2.1,4.4-3,6.5c-0.4,1-0.8,2.3-1.4,3.9c-0.5,1.6-1,3.1-1.5,4.5
		c-0.4,1.4-0.7,2.2-0.7,2.6l-0.1-3.2c0-2.1-0.1-4.8-0.1-8.2c-0.1-8-0.2-12.3-0.4-13c-0.3-1.3-0.9-2.2-1.8-2.7
		c-0.6-0.4-1.2-0.6-1.9-0.6c-0.3,0-0.7,0-1,0.1c-1.7,0.6-2.6,2.2-2.6,5c0,0.4,0,0.8,0.1,1.3c0,0.6,0.1,2.6,0.1,6c0,0.1,0,0.2,0,0.3
		c-0.3,0.2-0.7,0.5-1,0.7c-1.6,1-3.1,1.7-4.7,1.9c0,0,0-0.4-0.1-1.1c-0.1-0.7-0.2-1.5-0.2-2.4c-0.2-3.8-0.9-6.8-2-9
		c-1-2-2.4-3.3-4-3.9c-0.7-0.3-1.4-0.4-2.1-0.4c-0.9,0-1.9,0.3-2.9,0.8c-0.5,0.3-0.8,0.4-1.1,0.5h-0.2c-0.2,0-0.5,0-0.7-0.1
		c-0.4-0.1-0.7-0.1-1.1-0.1c-1.5,0-2.9,1.1-4,3.2c-1.1,2.4-2,5.8-2.7,10c-0.3,1.9-0.5,3.8-0.7,5.7c-0.1,0.4-0.3,0.9-0.5,1.4
		c-0.8,2.1-1.5,3.9-2.3,5.5c-1,2.1-1.8,3.1-2.3,3.1c-0.1,0-0.2,0-0.2-0.1c-1.4-0.7-3.7-5.1-7-13.2c-1.4-3.4-2.4-5.8-3.2-7.3
		c-0.8-1.5-1.5-2.6-2.3-3.4c-1.3-1.3-2.5-1.9-3.8-1.9c-1.2,0-2.4,0.6-3.6,1.8c-2.2,2-4.2,6.5-5.9,13.7c-0.1,0.4-0.2,0.7-0.3,1.1
		c-0.2,0.8-0.4,1.6-0.5,2.1c-0.1,0.6-0.2,1-0.3,1.1c0,0-0.2-0.8-0.3-2.5c-0.2-1.6-0.4-3.9-0.6-6.9c-0.1-1-0.2-2.6-0.2-4.9
		s-0.1-4.6-0.2-7c0-2.2,0-5,0-8.5c0-3.4,0.1-6.3,0.2-8.7c0-1.2,0.1-2.3,0.2-3.4c0.1-1.1,0.1-1.9,0.2-2.4c0-0.4,0.1-0.7,0.1-0.9
		c0-0.3,0-0.6-0.1-0.8c0-0.3-0.2-0.6-0.4-1.1c-0.8-1.3-1.9-2-3.2-2c-1.4,0-2.5,0.6-3.3,1.9c-0.5,0.9-0.9,3.4-1.2,7.4
		c-0.3,4-0.5,9-0.5,14.9c0,14.1,1.1,26.1,3,36.1c0.6,3.1,1.2,5.3,1.8,6.7c0.6,1.4,1.4,2.3,2.3,2.7c0.6,0.3,1.3,0.4,2,0.4
		c0.8,0,1.5-0.2,2-0.5c0.6-0.3,1-0.8,1.4-1.4c0.4-0.6,0.7-1.6,1-3c0.3-1.4,0.6-3.3,1-5.9c1.8-11.5,3.5-18.9,5.1-22l0.4-0.8l0.5,1
		c0.1,0.3,0.4,1,0.9,2.1c0.4,1.1,0.9,2.4,1.4,3.8c1.7,4.5,3.2,7.9,4.4,10.3c1.2,2.4,2.4,4.1,3.6,5.3c1.8,1.8,3.6,2.7,5.4,2.7
		c1.8,0,3.5-0.9,5.3-2.7c0.2-0.2,0.3-0.4,0.5-0.6c0.3,1.4,0.8,2.8,1.4,4.2c1.7,3.1,3.8,4.7,6.2,4.7c0.1,0,0.9-0.1,2.4-0.2
		c1.4-0.1,3.2-1.6,5.2-4.4c2.2-3.1,3.8-7,4.9-11.6l0.6-2.7l1-0.3c1.7-0.6,3.4-1.2,5.2-1.9c0.1,0,0.2-0.1,0.3-0.1c0,1.6,0,3.3,0,5.1
		c0,9.3,0.2,16.6,0.5,21.9c0.3,5.4,1,12.2,2.1,20.6c0.3,2.8,0.6,4.9,0.8,6.3s0.5,2.3,0.8,2.8c0.3,0.5,0.7,0.9,1.3,1.1
		c0.5,0.3,1.1,0.4,1.8,0.4c0.1,0,0.3,0,0.7-0.1c0.4,0,0.9-0.3,1.4-0.8c0.5-0.4,0.8-0.9,1-1.4c0.1-0.5,0.2-1.1,0.2-2
		c0-0.2,0-0.7,0-1.4c0-0.7-0.2-2.3-0.5-4.6c-0.2-1.8-0.4-3.5-0.4-4.9v-5.6c0.1-3.2,0.3-6.2,0.5-8.9c0.3-2.7,0.7-5.8,1.4-9.3
		c0.3-1.8,0.5-2.8,0.6-3c0,0,0.1-0.1,0.1-0.1c0.1,0,0.3,0.3,0.5,0.9c1.2,2.7,2.9,4.3,5.1,4.9c0.6,0.1,1.1,0.2,1.7,0.2
		c1.6,0,3.2-0.7,4.8-2c1.7-1.6,3.2-3.8,4.3-6.6c1.2-2.8,2.1-5.8,2.7-8.8c0.7-3.1,1.2-5.7,1.5-8l1.5-0.8c2.5-1.1,4.6-1.9,6.3-2.2
		c2.4-0.4,3.7-1.4,3.7-2.8v-0.2C384.5,216.5,384.2,215.9,383.7,215.4z M326.2,231.5c-0.3,0.9-0.7,1.9-1.2,2.8
		c-0.4,1-0.8,1.7-1.2,2.3c-1.2,2.1-2.1,3.2-2.5,3.2c0,0-0.2,0-0.4-0.1c-0.2-0.1-0.5-1.3-0.7-3.6c-0.2-1.5-0.3-3-0.3-4.4
		c0-1,0-2,0.1-3l0.1-1.2l1.6,0.8c0.5,0.2,1,0.5,1.6,0.7c0.6,0.2,1.1,0.4,1.6,0.5c0.5,0.1,0.9,0.2,1.2,0.2c0.3,0.1,0.5,0.1,0.5,0.2
		C326.7,230,326.5,230.6,326.2,231.5z M327.8,222.6c0,0.4-0.1,0.6-0.3,0.8c0,0-0.2,0.1-0.4,0.1h-0.4c-2.6-0.1-3.9-1.7-3.9-4.9v-0.6
		c0.1-2.2,0.8-4,1.9-5.4l0.8-0.9l0.5,0.5c0.1,0.2,0.2,0.5,0.4,0.9c0.2,0.4,0.4,0.8,0.5,1.3c0.2,0.7,0.4,1.5,0.5,2.7
		c0.2,1.1,0.3,2.3,0.3,3.4c0,0.5,0.1,1,0.1,1.4C327.9,222,327.9,222.3,327.8,222.6z M365.8,226.7c-1.3,6-2.8,10.4-4.4,13.2
		c-0.7,1.3-1.4,2-2,2.3c0,0-0.1,0.1-0.2,0.1c-0.5,0-0.9-0.9-1.2-2.6v-0.7c0-4,2.3-8,7-11.9c0.4-0.3,0.6-0.5,0.8-0.5
		c0,0,0.1,0,0.1,0.1S365.8,226.6,365.8,226.7z M364.9,220c-0.7,0.4-1.3,0.8-2,1.3s-1.2,0.9-1.7,1.2c-0.4,0.3-0.9,0.8-1.5,1.3
		c-0.6,0.5-1.1,1-1.6,1.5l-1.6,1.6l0.5-1.4c0.6-1.4,1.4-3.2,2.6-5.5c1.2-2.3,2.1-4.1,3-5.4c0.4-0.6,0.9-1.2,1.3-1.8
		c0.5-0.6,0.9-1.1,1.2-1.4l1.1-1.1l0.3,0.9c0.1,0.3,0.2,0.8,0.2,1.6s0.1,1.6,0.2,2.6l0.1,3.2L364.9,220z"/>
</g>
<path id="imagebot_310" class="st0" d="M246.4,162.4c-4.6-3.7,6.2-8.5,9.8-12.8c-2.6-20.7,27.6-48,79.4-52.2
	c5.3-9.6,13.5-10.4,21.9-10.4c-2.2,3.5-5.7,6.8-2.2,13.2c40.8,18,59.1,52,69,76.2c12.2,2.4,27.3,3.6,34.6,14.5
	c-12.2-4.7-21.4,4.9-31.7-0.4c-3.5,4.4-15.8,4.5-16.6,12c-2.1-3.2-9.4-8.6,4-22.5c-9.1-2.7-25.8-26.2-40.3-30
	c-18.4-4.9-30.6-9.1-58.5-4.9c-1.3,9,1.5,16.2,5.8,22.6c-11.4,1.3-17.2-8.8-23.3-18.3c-16.1,2.9-21.6,5-29.6,7.2
	C260.1,159.9,247.3,167.7,246.4,162.4z"/>
</svg>
