0
SECTION
2
HEADER
9
$INSUNITS
70
1
9
$ACADVER
1
AC1014
9
$HANDSEED
5
FFFF
0
ENDSEC
0
SECTION
2
TABLES
0
TABLE
2
VPORT
5
8
100
AcDbSymbolTable
0
ENDTAB
0
TABLE
2
LTYPE
5
5
100
AcDbSymbolTable
0
LTYPE
5
14
100
AcDbSymbolTableRecord
100
AcDbLinetypeTableRecord
2
BYBLOCK
70
0
0
LTYPE
5
15
100
AcDbSymbolTableRecord
100
AcDbLinetypeTableRecord
2
BYLAYER
70
0
0
ENDTAB
0
TABLE
2
LAYER
5
2
100
AcDbSymbolTable
70
2
0
LAYER
5
50
100
AcDbSymbolTableRecord
100
AcDbLayerTableRecord
2
0
70
0
6
CONTINUOUS
0
ENDTAB
0
TABLE
2
STYLE
5
3
100
AcDbSymbolTable
70
1
0
STYLE
5
11
100
AcDbSymbolTableRecord
100
AcDbTextStyleTableRecord
2
STANDARD
70
0
0
ENDTAB
0
TABLE
2
VIEW
5
6
100
AcDbSymbolTable
70
0
0
ENDTAB
0
TABLE
2
UCS
5
7
100
AcDbSymbolTable
70
0
0
ENDTAB
0
TABLE
2
APPID
5
9
100
AcDbSymbolTable
70
2
0
APPID
5
12
100
AcDbSymbolTableRecord
100
AcDbRegAppTableRecord
2
ACAD
70
0
0
ENDTAB
0
TABLE
2
DIMSTYLE
5
A
100
AcDbSymbolTable
70
1
0
ENDTAB
0
TABLE
2
BLOCK_RECORD
5
1
100
AcDbSymbolTable
70
1
0
BLOCK_RECORD
5
1F
100
AcDbSymbolTableRecord
100
AcDbBlockTableRecord
2
*MODEL_SPACE
0
BLOCK_RECORD
5
1B
100
AcDbSymbolTableRecord
100
AcDbBlockTableRecord
2
*PAPER_SPACE
0
ENDTAB
0
ENDSEC
0
SECTION
2
BLOCKS
0
BLOCK
5
20
100
AcDbEntity
100
AcDbBlockBegin
2
*MODEL_SPACE
0
ENDBLK
5
21
100
AcDbEntity
100
AcDbBlockEnd
0
BLOCK
5
1C
100
AcDbEntity
100
AcDbBlockBegin
2
*PAPER_SPACE
0
ENDBLK
5
1D
100
AcDbEntity
100
AcDbBlockEnd
0
ENDSEC
0
SECTION
2
ENTITIES
0
LWPOLYLINE
5
100
100
AcDbEntity
8
0
100
AcDbPolyline
90
4
70
1
43
0.0
10
-7.2499999999999991
20
-0.37500000000000017
10
-7.2499999999999991
20
-4.6249999999999991
10
-2.4999999624537668
20
-4.6249999999999991
10
-2.4999999624537668
20
-0.37500000000000017
0
LWPOLYLINE
5
101
100
AcDbEntity
8
0
100
AcDbPolyline
90
26
70
1
43
0.0
10
-0.83210910825700679
20
-0.9519412541297716
10
-0.83210910825700679
20
-1.2090366639146513
10
-1.0821091082570067
20
-1.2090366639146513
10
-1.082109140171305
20
-3.459036663914651
10
-1.332109140171305
20
-3.459036663914651
10
-1.332109140171305
20
-1.2090366639146513
10
-1.5821091401713048
20
-1.2090366639146513
10
-1.5821091401713048
20
-0.9519412541297716
10
-1.8321091401713048
20
-0.9519412541297716
10
-1.8321091401713048
20
-1.2090366639146513
10
-2.0821091401713052
20
-1.2090366639146513
10
-2.0821091401713039
20
-3.709036663914651
10
-1.7071091401713043
20
-3.709036663914651
10
-1.7071091401713052
20
-4.9999999999999991
10
-7.9999999999999991
20
-4.9999999999999991
10
-7.9999999999999991
20
0
10
0
20
0
10
0
20
-4.9999999999999991
10
-1.332109140171305
20
-4.9999999999999991
10
-1.332109140171305
20
-4.4590366639146506
10
-0.83210910825700679
20
-4.4590366639146506
10
-0.83210910825700679
20
-3.709036663914651
10
-0.33210910825700701
20
-3.709036663914651
10
-0.33210910825700701
20
-1.2090366639146513
10
-0.58210910825700768
20
-1.2090366639146513
10
-0.58210910825700768
20
-0.9519412541297716
0
ENDSEC
0
SECTION
2
OBJECTS
0
DICTIONARY
5
C
100
AcDbDictionary
3
ACAD_GROUP
350
D
3
ACAD_MLINESTYLE
350
17
0
DICTIONARY
5
D
100
AcDbDictionary
0
DICTIONARY
5
1A
330
C
100
AcDbDictionary
0
DICTIONARY
5
17
100
AcDbDictionary
0
ENDSEC
0
EOF
